<svg width="703" height="390" viewBox="0 0 703 390" fill="none" xmlns="http://www.w3.org/2000/svg">
<path d="M478.89 336.039H450.29V336.314H478.89V336.039Z" fill="#EBEBEB"/>
<path d="M375.633 339.031H326.1V339.306H375.633V339.031Z" fill="#EBEBEB"/>
<path d="M449.19 325.831H382.321V326.106H449.19V325.831Z" fill="#EBEBEB"/>
<path d="M62.859 327.679H41.706V327.954H62.859V327.679Z" fill="#EBEBEB"/>
<path d="M133.479 327.679H72.66V327.954H133.479V327.679Z" fill="#EBEBEB"/>
<path d="M252.554 332.321H170.637V332.596H252.554V332.321Z" fill="#EBEBEB"/>
<path d="M58.184 237.622H34.864V318.34H58.184V237.622Z" fill="#FAFAFA"/>
<path d="M78.6 255.332H55.28V318.34H78.6V255.332Z" fill="#FAFAFA"/>
<path d="M93.516 203.412H70.196V318.34H93.516V203.412Z" fill="#FAFAFA"/>
<path d="M109.015 110.22H85.695V318.34H109.015V110.22Z" fill="#FAFAFA"/>
<path d="M166.699 126.423H104.12V318.34H166.699V126.423Z" fill="#FAFAFA"/>
<path d="M410.008 318.34H436.65V263.098H410.008V318.34Z" fill="#FAFAFA"/>
<path d="M386.666 318.34H413.308V275.22H386.666V318.34Z" fill="#FAFAFA"/>
<path d="M369.638 318.34H396.28V239.679H369.638V318.34Z" fill="#FAFAFA"/>
<path d="M351.928 318.34H378.57V175.901H351.928V318.34Z" fill="#FAFAFA"/>
<path d="M366.25 144.331H284.487V318.34H366.25V144.331Z" fill="#F0F0F0"/>
<path d="M358.462 151.624H354.568V172.799H358.462V151.624Z" fill="#F5F5F5"/>
<path d="M358.462 184.745H354.568V205.92H358.462V184.745Z" fill="#F5F5F5"/>
<path d="M358.462 217.855H354.568V239.03H358.462V217.855Z" fill="#F5F5F5"/>
<path d="M358.462 250.965H354.568V272.14H358.462V250.965Z" fill="#F5F5F5"/>
<path d="M358.462 284.086H354.568V305.261H358.462V284.086Z" fill="#F5F5F5"/>
<path d="M344.668 151.624H340.774V172.799H344.668V151.624Z" fill="#F5F5F5"/>
<path d="M344.668 184.745H340.774V205.92H344.668V184.745Z" fill="#F5F5F5"/>
<path d="M344.668 217.855H340.774V239.03H344.668V217.855Z" fill="#F5F5F5"/>
<path d="M344.668 250.965H340.774V272.14H344.668V250.965Z" fill="#F5F5F5"/>
<path d="M344.668 284.086H340.774V305.261H344.668V284.086Z" fill="#F5F5F5"/>
<path d="M330.874 151.624H326.98V172.799H330.874V151.624Z" fill="#F5F5F5"/>
<path d="M330.874 184.745H326.98V205.92H330.874V184.745Z" fill="#F5F5F5"/>
<path d="M330.874 217.855H326.98V239.03H330.874V217.855Z" fill="#F5F5F5"/>
<path d="M330.874 250.965H326.98V272.14H330.874V250.965Z" fill="#F5F5F5"/>
<path d="M330.874 284.086H326.98V305.261H330.874V284.086Z" fill="#F5F5F5"/>
<path d="M317.08 151.624H313.186V172.799H317.08V151.624Z" fill="#F5F5F5"/>
<path d="M317.08 184.745H313.186V205.92H317.08V184.745Z" fill="#F5F5F5"/>
<path d="M317.08 217.855H313.186V239.03H317.08V217.855Z" fill="#F5F5F5"/>
<path d="M317.08 250.965H313.186V272.14H317.08V250.965Z" fill="#F5F5F5"/>
<path d="M317.08 284.086H313.186V305.261H317.08V284.086Z" fill="#F5F5F5"/>
<path d="M303.275 151.624H299.381V172.799H303.275V151.624Z" fill="#F5F5F5"/>
<path d="M303.275 184.745H299.381V205.92H303.275V184.745Z" fill="#F5F5F5"/>
<path d="M303.275 217.855H299.381V239.03H303.275V217.855Z" fill="#F5F5F5"/>
<path d="M303.275 250.965H299.381V272.14H303.275V250.965Z" fill="#F5F5F5"/>
<path d="M303.275 284.086H299.381V305.261H303.275V284.086Z" fill="#F5F5F5"/>
<path opacity="0.5" d="M284.487 144.331H301.328L308.654 318.34H284.487V144.331Z" fill="#E0E0E0"/>
<path d="M244.293 77.099L292.781 86.273V318.34H244.293V77.099Z" fill="#F0F0F0"/>
<path d="M244.293 77.099H205.496V318.34H244.293V77.099Z" fill="#E6E6E6"/>
<path d="M205.496 98.3291L292.781 98.3291V97.0971L205.496 97.0971V98.3291Z" fill="#E0E0E0"/>
<path d="M205.496 111.463L292.781 111.463V110.231L205.496 110.231V111.463Z" fill="#E0E0E0"/>
<path d="M205.496 124.597L292.781 124.597V123.365L205.496 123.365V124.597Z" fill="#E0E0E0"/>
<path d="M205.496 137.72H292.781V136.488H205.496V137.72Z" fill="#E0E0E0"/>
<path d="M205.496 150.865H292.781V149.633H205.496V150.865Z" fill="#E0E0E0"/>
<path d="M205.496 163.999H292.781V162.767H205.496V163.999Z" fill="#E0E0E0"/>
<path d="M205.496 177.133H292.781V175.901H205.496V177.133Z" fill="#E0E0E0"/>
<path d="M205.496 190.267H292.781V189.035H205.496V190.267Z" fill="#E0E0E0"/>
<path d="M205.496 203.412H292.781V202.18H205.496V203.412Z" fill="#E0E0E0"/>
<path d="M205.496 216.546H292.781V215.314H205.496V216.546Z" fill="#E0E0E0"/>
<path d="M205.496 229.68H292.781V228.448H205.496V229.68Z" fill="#E0E0E0"/>
<path d="M205.496 242.803H292.781V241.571H205.496V242.803Z" fill="#E0E0E0"/>
<path d="M205.496 255.948H292.781V254.716H205.496V255.948Z" fill="#E0E0E0"/>
<path d="M205.496 269.082H292.781V267.85H205.496V269.082Z" fill="#E0E0E0"/>
<path d="M205.496 282.216H292.781V280.984H205.496V282.216Z" fill="#E0E0E0"/>
<path d="M205.496 295.35H292.781V294.118H205.496V295.35Z" fill="#E0E0E0"/>
<path d="M205.496 308.495H292.781V307.263H205.496V308.495Z" fill="#E0E0E0"/>
<path d="M184.277 25.828H143.72V318.34H184.277V25.828Z" fill="#F0F0F0"/>
<path d="M184.277 25.828H143.72L158.647 0H216.727L184.277 25.828Z" fill="#FAFAFA"/>
<path d="M184.277 25.828L216.727 0V318.34H184.277V25.828Z" fill="#EBEBEB"/>
<path d="M216.727 39.457H143.72V41.019H216.727V39.457Z" fill="#E0E0E0"/>
<path d="M216.727 56.0121H143.72V57.5741H216.727V56.0121Z" fill="#E0E0E0"/>
<path d="M216.727 72.5669H143.72V74.1289H216.727V72.5669Z" fill="#E0E0E0"/>
<path d="M216.727 89.1331H143.72V90.6951H216.727V89.1331Z" fill="#E0E0E0"/>
<path d="M216.727 105.688H143.72V107.25H216.727V105.688Z" fill="#E0E0E0"/>
<path d="M216.727 122.243H143.72V123.805H216.727V122.243Z" fill="#E0E0E0"/>
<path d="M216.727 138.798H143.72V140.36H216.727V138.798Z" fill="#E0E0E0"/>
<path d="M216.727 155.353H143.72V156.915H216.727V155.353Z" fill="#E0E0E0"/>
<path d="M216.727 171.908H143.72V173.47H216.727V171.908Z" fill="#E0E0E0"/>
<path d="M216.727 188.474H143.72V190.036H216.727V188.474Z" fill="#E0E0E0"/>
<path d="M216.727 205.029H143.72V206.591H216.727V205.029Z" fill="#E0E0E0"/>
<path d="M216.727 221.584H143.72V223.146H216.727V221.584Z" fill="#E0E0E0"/>
<path d="M216.727 238.139H143.72V239.701H216.727V238.139Z" fill="#E0E0E0"/>
<path d="M216.727 254.694H143.72V256.256H216.727V254.694Z" fill="#E0E0E0"/>
<path d="M216.727 271.249H143.72V272.811H216.727V271.249Z" fill="#E0E0E0"/>
<path d="M216.727 287.815H143.72V289.377H216.727V287.815Z" fill="#E0E0E0"/>
<path d="M216.727 304.37H143.72V305.932H216.727V304.37Z" fill="#E0E0E0"/>
<path d="M136.68 167.376H92.405V318.34H136.68V167.376Z" fill="#F0F0F0"/>
<path d="M108.223 175.175H101.117V199.408H108.223V175.175Z" fill="#E6E6E6"/>
<path d="M125.658 175.175H118.552V199.408H125.658V175.175Z" fill="#E6E6E6"/>
<path d="M108.223 206.558H101.117V230.791H108.223V206.558Z" fill="#E6E6E6"/>
<path d="M125.658 206.558H118.552V230.791H125.658V206.558Z" fill="#E6E6E6"/>
<path d="M108.223 237.93H101.117V262.163H108.223V237.93Z" fill="#E6E6E6"/>
<path d="M125.658 237.93H118.552V262.163H125.658V237.93Z" fill="#E6E6E6"/>
<path d="M108.223 269.313H101.117V293.546H108.223V269.313Z" fill="#E6E6E6"/>
<path d="M125.658 269.313H118.552V293.546H125.658V269.313Z" fill="#E6E6E6"/>
<path d="M136.669 167.376H92.405L102.789 156.915H147.064L136.669 167.376Z" fill="white"/>
<path d="M136.669 167.376L147.064 156.915L157.448 167.376V318.34H136.669V167.376Z" fill="#E6E6E6"/>
<path d="M703 322.906H245V323.121H703V322.906Z" fill="#EBEBEB"/>
<path d="M462.092 284.531H285.222C283.836 284.528 282.508 284.01 281.529 283.089C280.55 282.168 280 280.919 280 279.618V46.07C280.012 44.7759 280.568 43.5386 281.545 42.6267C282.523 41.7149 283.844 41.2022 285.222 41.2H462.092C463.479 41.2 464.81 41.7176 465.79 42.639C466.771 43.5603 467.322 44.81 467.322 46.113V279.618C467.322 280.921 466.771 282.17 465.79 283.092C464.81 284.013 463.479 284.531 462.092 284.531ZM285.222 41.372C283.897 41.3743 282.627 41.8703 281.691 42.7511C280.755 43.6319 280.229 44.8255 280.229 46.07V279.618C280.229 280.862 280.755 282.056 281.691 282.937C282.627 283.817 283.897 284.313 285.222 284.316H462.092C463.418 284.313 464.688 283.818 465.626 282.937C466.563 282.057 467.091 280.863 467.093 279.618V46.07C467.091 44.8247 466.563 43.6311 465.626 42.7506C464.688 41.87 463.418 41.3743 462.092 41.372H285.222Z" fill="#EBEBEB"/>
<path d="M660.232 284.531H483.352C481.966 284.528 480.637 284.01 479.657 283.089C478.676 282.168 478.124 280.92 478.122 279.618V46.07C478.136 44.7752 478.694 43.5378 479.673 42.6262C480.652 41.7146 481.974 41.2021 483.352 41.2H660.232C661.608 41.2044 662.927 41.7181 663.902 42.6298C664.878 43.5414 665.432 44.7774 665.444 46.07V279.618C665.444 280.918 664.895 282.165 663.919 283.086C662.942 284.007 661.616 284.526 660.232 284.531ZM483.352 41.372C482.027 41.3743 480.756 41.87 479.819 42.7506C478.881 43.6311 478.353 44.8247 478.351 46.07V279.618C478.353 280.863 478.881 282.057 479.819 282.937C480.756 283.818 482.027 284.313 483.352 284.316H660.232C661.558 284.313 662.828 283.818 663.766 282.937C664.703 282.057 665.231 280.863 665.233 279.618V46.07C665.231 44.8247 664.703 43.6311 663.766 42.7506C662.828 41.87 661.558 41.3743 660.232 41.372H483.352Z" fill="#EBEBEB"/>
<path d="M657.108 336.75H633.292V336.966H657.108V336.75Z" fill="#EBEBEB"/>
<path d="M571.123 339.091H529.876V339.306H571.123V339.091Z" fill="#EBEBEB"/>
<path d="M632.376 328.765H576.693V328.98H632.376V328.765Z" fill="#EBEBEB"/>
<path d="M310.668 330.211H293.053V330.426H310.668V330.211Z" fill="#EBEBEB"/>
<path d="M369.475 330.211H318.83V330.426H369.475V330.211Z" fill="#EBEBEB"/>
<path d="M468.632 333.842H400.418V334.057H468.632V333.842Z" fill="#EBEBEB"/>
<path d="M306.775 259.767H287.356V322.906H306.775V259.767Z" fill="#FAFAFA"/>
<path d="M323.776 273.62H304.357V322.906H323.776V273.62Z" fill="#FAFAFA"/>
<path d="M336.197 233.008H316.778V322.906H336.197V233.008Z" fill="#FAFAFA"/>
<path d="M349.103 160.112H329.684V322.906H349.103V160.112Z" fill="#FAFAFA"/>
<path d="M397.138 172.786H345.027V322.906H397.138V172.786Z" fill="#FAFAFA"/>
<path d="M599.748 322.906H621.934V279.695H599.748V322.906Z" fill="#FAFAFA"/>
<path d="M580.311 322.906H602.496V289.177H580.311V322.906Z" fill="#FAFAFA"/>
<path d="M566.131 322.906H588.317V261.376H566.131V322.906Z" fill="#FAFAFA"/>
<path d="M551.384 322.906H573.569V211.488H551.384V322.906Z" fill="#FAFAFA"/>
<path d="M563.31 186.794H495.224V322.906H563.31V186.794Z" fill="#F0F0F0"/>
<path d="M556.825 192.499H553.582V209.062H556.825V192.499Z" fill="#F5F5F5"/>
<path d="M556.825 218.406H553.582V234.97H556.825V218.406Z" fill="#F5F5F5"/>
<path d="M556.825 244.305H553.582V260.869H556.825V244.305Z" fill="#F5F5F5"/>
<path d="M556.825 270.205H553.582V286.768H556.825V270.205Z" fill="#F5F5F5"/>
<path d="M556.825 296.112H553.582V312.676H556.825V296.112Z" fill="#F5F5F5"/>
<path d="M545.338 192.499H542.095V209.062H545.338V192.499Z" fill="#F5F5F5"/>
<path d="M545.338 218.406H542.095V234.97H545.338V218.406Z" fill="#F5F5F5"/>
<path d="M545.338 244.305H542.095V260.869H545.338V244.305Z" fill="#F5F5F5"/>
<path d="M545.338 270.205H542.095V286.768H545.338V270.205Z" fill="#F5F5F5"/>
<path d="M545.338 296.112H542.095V312.676H545.338V296.112Z" fill="#F5F5F5"/>
<path d="M533.851 192.499H530.609V209.062H533.851V192.499Z" fill="#F5F5F5"/>
<path d="M533.851 218.406H530.609V234.97H533.851V218.406Z" fill="#F5F5F5"/>
<path d="M533.851 244.305H530.609V260.869H533.851V244.305Z" fill="#F5F5F5"/>
<path d="M533.851 270.205H530.609V286.768H533.851V270.205Z" fill="#F5F5F5"/>
<path d="M533.851 296.112H530.609V312.676H533.851V296.112Z" fill="#F5F5F5"/>
<path d="M522.365 192.499H519.122V209.062H522.365V192.499Z" fill="#F5F5F5"/>
<path d="M522.365 218.406H519.122V234.97H522.365V218.406Z" fill="#F5F5F5"/>
<path d="M522.365 244.305H519.122V260.869H522.365V244.305Z" fill="#F5F5F5"/>
<path d="M522.365 270.205H519.122V286.768H522.365V270.205Z" fill="#F5F5F5"/>
<path d="M522.365 296.112H519.122V312.676H522.365V296.112Z" fill="#F5F5F5"/>
<path d="M510.869 192.499H507.626V209.062H510.869V192.499Z" fill="#F5F5F5"/>
<path d="M510.869 218.406H507.626V234.97H510.869V218.406Z" fill="#F5F5F5"/>
<path d="M510.869 244.305H507.626V260.869H510.869V244.305Z" fill="#F5F5F5"/>
<path d="M510.869 270.205H507.626V286.768H510.869V270.205Z" fill="#F5F5F5"/>
<path d="M510.869 296.112H507.626V312.676H510.869V296.112Z" fill="#F5F5F5"/>
<path opacity="0.5" d="M495.224 186.794H509.248L515.348 322.906H495.224V186.794Z" fill="#E0E0E0"/>
<path d="M461.753 134.204L502.13 141.38V322.906H461.753V134.204Z" fill="#F0F0F0"/>
<path d="M461.753 134.204H429.446V322.906H461.753V134.204Z" fill="#E6E6E6"/>
<path d="M429.446 150.811H502.13V149.847H429.446V150.811Z" fill="#E0E0E0"/>
<path d="M429.446 161.084H502.13V160.121H429.446V161.084Z" fill="#E0E0E0"/>
<path d="M429.446 171.358H502.13V170.394H429.446V171.358Z" fill="#E0E0E0"/>
<path d="M429.446 181.623H502.13V180.659H429.446V181.623Z" fill="#E0E0E0"/>
<path d="M429.446 191.905H502.13V190.941H429.446V191.905Z" fill="#E0E0E0"/>
<path d="M429.446 202.178H502.13V201.215H429.446V202.178Z" fill="#E0E0E0"/>
<path d="M429.446 212.452H502.13V211.488H429.446V212.452Z" fill="#E0E0E0"/>
<path d="M429.446 222.726H502.13V221.762H429.446V222.726Z" fill="#E0E0E0"/>
<path d="M429.446 233.008H502.13V232.044H429.446V233.008Z" fill="#E0E0E0"/>
<path d="M429.446 243.281H502.13V242.318H429.446V243.281Z" fill="#E0E0E0"/>
<path d="M429.446 253.555H502.13V252.591H429.446V253.555Z" fill="#E0E0E0"/>
<path d="M429.446 263.82H502.13V262.856H429.446V263.82Z" fill="#E0E0E0"/>
<path d="M429.446 274.102H502.13V273.139H429.446V274.102Z" fill="#E0E0E0"/>
<path d="M429.446 284.376H502.13V283.412H429.446V284.376Z" fill="#E0E0E0"/>
<path d="M429.446 294.65H502.13V293.686H429.446V294.65Z" fill="#E0E0E0"/>
<path d="M429.446 304.923H502.13V303.959H429.446V304.923Z" fill="#E0E0E0"/>
<path d="M429.446 315.205H502.13V314.241H429.446V315.205Z" fill="#E0E0E0"/>
<path d="M411.776 94.0995H378.003V322.906H411.776V94.0995Z" fill="#F0F0F0"/>
<path d="M411.776 94.0995H378.003L390.433 73.8965H438.798L411.776 94.0995Z" fill="#FAFAFA"/>
<path d="M411.776 94.0995L438.798 73.8965V322.906H411.776V94.0995Z" fill="#EBEBEB"/>
<path d="M438.798 104.76H378.003V105.982H438.798V104.76Z" fill="#E0E0E0"/>
<path d="M438.798 117.71H378.003V118.932H438.798V117.71Z" fill="#E0E0E0"/>
<path d="M438.798 130.659H378.003V131.881H438.798V130.659Z" fill="#E0E0E0"/>
<path d="M438.798 143.618H378.003V144.839H438.798V143.618Z" fill="#E0E0E0"/>
<path d="M438.798 156.567H378.003V157.789H438.798V156.567Z" fill="#E0E0E0"/>
<path d="M438.798 169.517H378.003V170.738H438.798V169.517Z" fill="#E0E0E0"/>
<path d="M438.798 182.466H378.003V183.688H438.798V182.466Z" fill="#E0E0E0"/>
<path d="M438.798 195.416H378.003V196.637H438.798V195.416Z" fill="#E0E0E0"/>
<path d="M438.798 208.365H378.003V209.587H438.798V208.365Z" fill="#E0E0E0"/>
<path d="M438.798 221.323H378.003V222.545H438.798V221.323Z" fill="#E0E0E0"/>
<path d="M438.798 234.273H378.003V235.495H438.798V234.273Z" fill="#E0E0E0"/>
<path d="M438.798 247.222H378.003V248.444H438.798V247.222Z" fill="#E0E0E0"/>
<path d="M438.798 260.172H378.003V261.394H438.798V260.172Z" fill="#E0E0E0"/>
<path d="M438.798 273.122H378.003V274.343H438.798V273.122Z" fill="#E0E0E0"/>
<path d="M438.798 286.071H378.003V287.293H438.798V286.071Z" fill="#E0E0E0"/>
<path d="M438.798 299.029H378.003V300.251H438.798V299.029Z" fill="#E0E0E0"/>
<path d="M438.798 311.978H378.003V313.2H438.798V311.978Z" fill="#E0E0E0"/>
<path d="M372.141 204.82H335.272V322.906H372.141V204.82Z" fill="#F0F0F0"/>
<path d="M348.444 210.921H342.527V229.876H348.444V210.921Z" fill="#E6E6E6"/>
<path d="M362.962 210.921H357.045V229.876H362.962V210.921Z" fill="#E6E6E6"/>
<path d="M348.444 235.469H342.527V254.424H348.444V235.469Z" fill="#E6E6E6"/>
<path d="M362.962 235.469H357.045V254.424H362.962V235.469Z" fill="#E6E6E6"/>
<path d="M348.444 260.008H342.527V278.964H348.444V260.008Z" fill="#E6E6E6"/>
<path d="M362.962 260.008H357.045V278.964H362.962V260.008Z" fill="#E6E6E6"/>
<path d="M348.444 284.556H342.527V303.512H348.444V284.556Z" fill="#E6E6E6"/>
<path d="M362.962 284.556H357.045V303.512H362.962V284.556Z" fill="#E6E6E6"/>
<path d="M372.132 204.82H335.272L343.919 196.637H380.788L372.132 204.82Z" fill="white"/>
<path d="M372.132 204.82L380.788 196.637L389.435 204.82V322.906H372.132V204.82Z" fill="#E6E6E6"/>
<path d="M316.5 344.2C491.298 344.2 633 336.62 633 327.27C633 317.92 491.298 310.341 316.5 310.341C141.702 310.341 0 317.92 0 327.27C0 336.62 141.702 344.2 316.5 344.2Z" fill="#F5F5F5"/>
<path d="M456.47 293.06H250.165V228.755H432.015L448.986 242.548C451.332 244.452 453.222 246.857 454.517 249.586C455.812 252.316 456.479 255.301 456.47 258.322V293.06Z" fill="#13C2C2"/>
<path opacity="0.5" d="M456.47 293.06H250.165V228.755H432.015L448.986 242.548C451.332 244.452 453.222 246.857 454.517 249.586C455.812 252.316 456.479 255.301 456.47 258.322V293.06Z" fill="black"/>
<path d="M248.979 287.26C248.979 263.789 259.653 244.766 272.699 244.766H247.532C234.403 244.766 223.812 263.742 223.812 287.26C223.812 310.778 234.486 329.766 247.532 329.766H272.747C259.594 329.766 248.979 310.731 248.979 287.26Z" fill="#263238"/>
<path d="M272.747 329.754C285.873 329.754 296.514 310.729 296.514 287.26C296.514 263.791 285.873 244.766 272.747 244.766C259.62 244.766 248.979 263.791 248.979 287.26C248.979 310.729 259.62 329.754 272.747 329.754Z" fill="#263238"/>
<path d="M274.656 320.397C283.964 320.397 291.509 305.561 291.509 287.26C291.509 268.959 283.964 254.123 274.656 254.123C265.349 254.123 257.803 268.959 257.803 287.26C257.803 305.561 265.349 320.397 274.656 320.397Z" fill="white"/>
<path d="M111.984 287.26C111.984 263.789 122.658 244.766 135.704 244.766H110.538C97.4085 244.766 86.8176 263.742 86.8176 287.26C86.8176 310.778 97.4916 329.766 110.538 329.766H135.752C122.623 329.766 111.984 310.731 111.984 287.26Z" fill="#263238"/>
<path d="M135.752 329.754C148.878 329.754 159.519 310.729 159.519 287.26C159.519 263.791 148.878 244.766 135.752 244.766C122.625 244.766 111.984 263.791 111.984 287.26C111.984 310.729 122.625 329.754 135.752 329.754Z" fill="#263238"/>
<path d="M411.853 287.26C411.853 263.789 422.527 244.766 435.573 244.766H410.406C397.289 244.766 386.686 263.742 386.686 287.26C386.686 310.778 397.36 329.766 410.406 329.766H435.62C422.503 329.766 411.853 310.731 411.853 287.26Z" fill="#263238"/>
<path d="M435.62 329.754C448.747 329.754 459.388 310.729 459.388 287.26C459.388 263.791 448.747 244.766 435.62 244.766C422.494 244.766 411.853 263.791 411.853 287.26C411.853 310.729 422.494 329.754 435.62 329.754Z" fill="#263238"/>
<path d="M437.541 320.397C446.849 320.397 454.394 305.561 454.394 287.26C454.394 268.959 446.849 254.123 437.541 254.123C428.234 254.123 420.688 268.959 420.688 287.26C420.688 305.561 428.234 320.397 437.541 320.397Z" fill="white"/>
<path d="M220.895 299.12H190.403L188.695 297.46C186.941 295.702 184.56 294.712 182.077 294.708H105.865C103.381 294.712 101.001 295.702 99.2468 297.46L98.2031 298.491H95.4279C93.2716 298.491 91.1365 298.065 89.1454 297.238C87.1542 296.41 85.3463 295.197 83.8254 293.668C82.3045 292.14 81.1006 290.326 80.283 288.33C79.4654 286.335 79.0502 284.198 79.0611 282.042V256.958H252.004L238.246 286.869C236.977 290.455 234.627 293.56 231.519 295.754C228.411 297.948 224.699 299.124 220.895 299.12Z" fill="#13C2C2"/>
<path opacity="0.2" d="M220.895 299.12H190.403L188.695 297.46C186.941 295.702 184.56 294.712 182.077 294.708H105.865C103.381 294.712 101.001 295.702 99.2468 297.46L98.2031 298.491H95.4279C93.2716 298.491 91.1365 298.065 89.1454 297.238C87.1542 296.41 85.3463 295.197 83.8254 293.668C82.3045 292.14 81.1006 290.326 80.283 288.33C79.4654 286.335 79.0502 284.198 79.0611 282.042V256.958H252.004L238.246 286.869C236.977 290.455 234.627 293.56 231.519 295.754C228.411 297.948 224.699 299.124 220.895 299.12Z" fill="black"/>
<path d="M400.918 150.016C400.813 150.018 400.71 149.989 400.621 149.933C400.553 149.895 400.494 149.844 400.446 149.782C400.399 149.721 400.364 149.65 400.344 149.575C400.324 149.5 400.319 149.421 400.33 149.344C400.341 149.267 400.368 149.193 400.408 149.127L408.71 134.895C408.744 134.819 408.794 134.751 408.856 134.696C408.917 134.641 408.99 134.599 409.069 134.574C409.148 134.549 409.232 134.54 409.314 134.549C409.397 134.558 409.476 134.585 409.548 134.626C409.62 134.668 409.682 134.724 409.731 134.791C409.779 134.859 409.813 134.935 409.83 135.017C409.848 135.098 409.847 135.182 409.83 135.263C409.813 135.344 409.779 135.421 409.73 135.488L401.428 149.72C401.376 149.809 401.302 149.884 401.212 149.936C401.123 149.988 401.021 150.016 400.918 150.016Z" fill="#263238"/>
<path d="M444.705 220.82V204.643C444.705 196.14 432.347 156.017 415.351 148.498C398.356 140.979 357.237 137.634 331.335 139.01C305.433 140.386 270.849 194.562 270.849 194.562L274.609 241.148C279.875 241.148 296.645 239.559 299.1 285.647C299.264 288.896 300.673 291.957 303.033 294.196C305.393 296.435 308.525 297.68 311.778 297.673H402.46C405.506 297.671 408.449 296.568 410.746 294.567C413.043 292.566 414.54 289.803 414.96 286.786C417.332 270.359 423.523 241.113 438.455 241.113C448.927 241.113 456.434 250.079 456.434 260.361C456.437 249.065 453.694 237.937 448.441 227.936L444.705 220.82Z" fill="#13C2C2"/>
<path d="M236.455 139.01C189.288 139.01 135.847 194.562 135.847 194.562H270.897C270.897 194.562 305.445 140.398 331.383 139.01H236.455Z" fill="#13C2C2"/>
<path opacity="0.6" d="M239.349 139.01C199.618 139.01 157.942 178.433 145.785 190.85C145.483 191.157 145.279 191.547 145.198 191.97C145.117 192.393 145.163 192.831 145.331 193.228C145.498 193.625 145.779 193.964 146.139 194.201C146.498 194.438 146.92 194.564 147.351 194.562H256.297C260.682 194.575 265.008 193.552 268.924 191.578C272.839 189.604 276.233 186.733 278.831 183.2C290.549 167.237 313.118 139.994 331.383 139.01H239.349Z" fill="white"/>
<path d="M270.897 194.562L221.013 233.926L86.7701 233.499C86.7701 233.499 79.0611 244.706 79.0611 256.958H252.004C254.838 249.45 264.777 241.148 274.656 241.148C274.656 227.177 270.897 194.562 270.897 194.562Z" fill="#13C2C2"/>
<path opacity="0.2" d="M238.246 222.327C238.104 222.325 237.968 222.273 237.861 222.179C237.754 222.086 237.685 221.957 237.665 221.817C237.644 221.663 237.685 221.507 237.778 221.383C237.871 221.259 238.01 221.176 238.163 221.152C250.137 219.211 261.342 213.998 270.541 206.09C272.359 204.561 273.543 202.409 273.861 200.054C274.179 197.699 273.608 195.31 272.26 193.353C272.211 193.289 272.175 193.216 272.155 193.138C272.135 193.06 272.131 192.979 272.143 192.899C272.155 192.82 272.183 192.744 272.226 192.675C272.269 192.607 272.325 192.548 272.391 192.502C272.457 192.456 272.532 192.424 272.61 192.408C272.689 192.392 272.77 192.392 272.849 192.409C272.928 192.425 273.003 192.457 273.069 192.503C273.135 192.549 273.191 192.608 273.233 192.677C274.745 194.877 275.384 197.561 275.027 200.207C274.669 202.852 273.341 205.271 271.3 206.992C261.94 215.047 250.532 220.351 238.341 222.315L238.246 222.327Z" fill="black"/>
<path d="M86.7701 233.499C86.7701 233.499 110.348 206.019 135.847 194.562H270.897L221.013 233.926L86.7701 233.499Z" fill="#13C2C2"/>
<path d="M191.197 233.499H102.639V236.072H191.197V233.499Z" fill="#263238"/>
<path d="M189.359 228.352L194.103 223.608C195.17 222.542 196.52 221.805 197.993 221.485L233.822 213.681C235.082 213.405 236.39 213.446 237.629 213.799L239.551 214.333C240.83 214.693 241.997 215.371 242.943 216.304C243.89 217.237 244.585 218.394 244.964 219.668C245.342 220.942 245.393 222.291 245.11 223.589C244.827 224.888 244.22 226.094 243.346 227.094L235.637 235.906C234.308 237.422 232.449 238.373 230.442 238.563L195.657 241.718C194.508 241.827 193.349 241.682 192.262 241.293C191.176 240.903 190.189 240.279 189.371 239.464C187.9 237.99 187.073 235.993 187.071 233.91C187.068 231.828 187.891 229.829 189.359 228.352Z" fill="white"/>
<path d="M105.141 230.866L101.216 223.524C100.663 222.496 99.8435 221.636 98.8435 221.034C97.8937 220.464 96.8133 220.148 95.7061 220.117C94.599 220.086 93.5025 220.341 92.5222 220.856L89.5453 222.421C88.0833 223.195 86.9718 224.497 86.438 226.062L84.6234 231.435C84.3216 232.32 84.2153 233.259 84.3117 234.189C84.4081 235.118 84.705 236.016 85.1819 236.82C85.6588 237.624 86.3043 238.315 87.074 238.845C87.8437 239.375 88.7192 239.732 89.6402 239.891L97.8354 241.303C99.1721 241.534 100.548 241.339 101.767 240.745C102.987 240.151 103.989 239.189 104.631 237.994L105.177 236.986C105.679 236.043 105.939 234.989 105.932 233.921C105.926 232.853 105.654 231.803 105.141 230.866Z" fill="white"/>
<path opacity="0.6" d="M298.483 196.14H423.345C424.404 196.14 425.448 195.893 426.394 195.418C427.339 194.943 428.161 194.253 428.793 193.404C429.424 192.554 429.848 191.569 430.031 190.526C430.214 189.483 430.15 188.412 429.844 187.399C426.998 177.911 421.542 163.074 413.347 155.507C412.436 154.674 411.318 154.1 410.109 153.847C395.391 150.728 371.73 148.652 354.178 147.443C346.221 146.898 338.242 148.083 330.787 150.917C323.333 153.75 316.581 158.165 310.995 163.857C304.317 170.603 298.285 177.961 292.98 185.833C292.315 186.831 291.933 187.99 291.875 189.187C291.817 190.385 292.084 191.575 292.649 192.633C293.213 193.69 294.054 194.575 295.081 195.192C296.109 195.81 297.284 196.137 298.483 196.14Z" fill="white"/>
<path d="M217.752 270.858C217.752 274.748 213.767 277.914 208.857 277.914C203.947 277.914 199.962 274.748 199.962 270.858C199.962 266.968 203.935 263.813 208.857 263.813C213.779 263.813 217.752 266.968 217.752 270.858Z" fill="#263238"/>
<path d="M146.082 228.114C149 228.114 150.423 231.103 149.26 234.78C148.098 238.456 144.801 241.457 141.872 241.457C138.942 241.457 137.531 238.468 138.693 234.78C139.855 231.091 143.164 228.114 146.082 228.114Z" fill="#263238"/>
<path d="M86.2364 270.858C86.2364 274.748 85.0504 277.914 83.7339 277.914C82.4175 277.914 81.2196 274.748 81.2196 270.858C81.2196 266.968 82.4056 263.813 83.7339 263.813C85.0622 263.813 86.2364 266.968 86.2364 270.858Z" fill="#263238"/>
<path d="M294.64 195.013V191.016C294.639 189.869 294.894 188.736 295.386 187.7C295.878 186.664 296.595 185.751 297.484 185.027C298.374 184.303 299.414 183.787 300.529 183.516C301.643 183.245 302.804 183.227 303.927 183.461L319.131 186.628C320.867 186.99 322.425 187.939 323.544 189.315C324.663 190.691 325.274 192.41 325.275 194.183V195.013C325.275 197.059 324.463 199.021 323.017 200.468C321.572 201.916 319.611 202.731 317.566 202.734H302.361C300.313 202.734 298.35 201.92 296.902 200.472C295.454 199.024 294.64 197.061 294.64 195.013Z" fill="#263238"/>
<path d="M374.636 149.103C374.636 149.103 372.608 148.901 369.074 148.593C384.705 180.615 380.72 196.14 380.72 196.14H392.651C392.77 176.642 374.636 149.103 374.636 149.103Z" fill="#263238"/>
<path opacity="0.1" d="M242.8 181.801C242.559 184.318 241.389 186.654 239.519 188.356C237.648 190.057 235.212 191.001 232.684 191.004H171.213C166.73 191.004 165.105 185.999 168.355 182.275C174.219 175.598 180.587 169.381 187.402 163.679C198.978 153.93 213.352 148.866 226.789 149.803L231.865 150.17C234.056 150.341 236.133 151.215 237.787 152.662C239.441 154.109 240.584 156.051 241.045 158.199C242.839 165.93 243.431 173.89 242.8 181.801Z" fill="#13C2C2"/>
<path opacity="0.2" d="M382.143 289.241C381.986 289.241 381.835 289.178 381.724 289.067C381.613 288.956 381.55 288.805 381.55 288.648C381.55 276.645 387.67 227.153 389.271 219.741C390.825 212.542 390.825 204.501 389.271 199.271C389.227 199.12 389.245 198.957 389.321 198.819C389.396 198.682 389.523 198.579 389.674 198.535C389.825 198.494 389.986 198.514 390.123 198.589C390.26 198.664 390.363 198.789 390.41 198.939C392.011 204.347 392.011 212.613 390.41 219.99C388.809 227.367 382.713 276.693 382.713 288.648C382.713 288.801 382.654 288.948 382.547 289.059C382.441 289.169 382.296 289.234 382.143 289.241Z" fill="black"/>
<path opacity="0.2" d="M380.566 220.37H366.109C365.834 220.379 365.562 220.324 365.312 220.211C365.062 220.098 364.841 219.929 364.667 219.717C364.493 219.505 364.37 219.255 364.307 218.988C364.244 218.721 364.244 218.443 364.306 218.176L364.602 216.503C364.722 215.901 365.041 215.358 365.508 214.959C365.975 214.561 366.563 214.332 367.176 214.309H381.633C381.908 214.3 382.18 214.355 382.43 214.468C382.68 214.581 382.901 214.75 383.075 214.962C383.249 215.174 383.373 215.424 383.435 215.691C383.498 215.958 383.498 216.236 383.436 216.503L383.14 218.176C383.02 218.778 382.701 219.322 382.234 219.72C381.767 220.118 381.179 220.347 380.566 220.37Z" fill="black"/>
<path d="M341.392 327.963L348.556 327.845L350.619 311.241L343.468 311.359L341.392 327.963Z" fill="#B55B52"/>
<path d="M375.585 327.43L382.535 325.307L378.218 309.569L371.268 311.703L375.585 327.43Z" fill="#B55B52"/>
<path d="M382.321 323.219L374.565 327.216C374.439 327.284 374.34 327.392 374.284 327.524C374.228 327.655 374.218 327.802 374.257 327.94L375.917 334.237C375.957 334.39 376.032 334.532 376.135 334.652C376.238 334.772 376.366 334.867 376.511 334.929C376.657 334.992 376.814 335.021 376.972 335.014C377.13 335.007 377.284 334.965 377.423 334.89C379.902 333.561 381.645 332.518 384.788 330.845C386.721 329.849 392.651 327.05 395.32 325.662C397.988 324.275 396.98 321.464 395.771 321.796C390.315 323.255 385.856 323.682 383.555 323.077C383.14 322.968 382.7 323.019 382.321 323.219Z" fill="#263238"/>
<path d="M348.698 327.014L340.882 327.145C340.742 327.148 340.606 327.199 340.498 327.289C340.39 327.38 340.317 327.505 340.289 327.643L338.973 334.024C338.938 334.178 338.94 334.337 338.977 334.491C339.013 334.644 339.085 334.787 339.186 334.909C339.287 335.03 339.414 335.127 339.558 335.191C339.702 335.256 339.859 335.286 340.017 335.281C342.839 335.186 346.907 334.961 350.453 334.901C354.593 334.842 355.802 335.008 360.665 334.901C363.594 334.901 364.365 331.865 363.132 331.616C357.51 330.43 355.316 330.43 350.442 327.513C349.913 327.199 349.313 327.027 348.698 327.014Z" fill="#263238"/>
<path d="M359.574 110.131C361.199 113.392 363.037 116.844 364.875 120.129C366.714 123.414 368.659 126.687 370.734 129.759C371.268 130.518 371.766 131.313 372.311 132.036L373.652 133.863C373.924 134.219 374.079 134.385 374.126 134.468C374.173 134.551 374.197 134.669 374.541 134.693C375.801 134.465 376.971 133.89 377.921 133.033C378.574 132.534 379.238 131.965 379.89 131.36C380.542 130.755 381.195 130.056 381.764 129.498L386.496 132.131C386.101 133.179 385.634 134.197 385.097 135.179C384.567 136.184 383.956 137.144 383.27 138.049C382.54 139.038 381.705 139.945 380.779 140.753C379.68 141.732 378.404 142.493 377.02 142.995C375.286 143.628 373.404 143.731 371.612 143.291C369.932 142.88 368.377 142.066 367.081 140.919C366.795 140.678 366.521 140.42 366.263 140.149L365.883 139.757L365.611 139.449L364.567 138.263C363.867 137.468 363.227 136.65 362.563 135.891C360.029 132.633 357.693 129.227 355.565 125.691C354.521 123.936 353.49 122.133 352.541 120.366C351.592 118.599 350.667 116.808 349.789 114.804L359.574 110.131Z" fill="#B55B52"/>
<path d="M346.741 110.178C344.808 116.749 358.388 134.645 358.388 134.645L372.086 125.833C369.508 120.141 366.328 114.742 362.598 109.728C356.988 102.576 348.852 102.956 346.741 110.178Z" fill="#13C2C2"/>
<g opacity="0.2">
<path d="M346.741 110.178C344.808 116.749 358.388 134.645 358.388 134.645L372.086 125.833C369.508 120.141 366.328 114.742 362.598 109.728C356.988 102.576 348.852 102.956 346.741 110.178Z" fill="black"/>
</g>
<path opacity="0.2" d="M355.091 117.887C357.902 119.073 362.053 125.881 364.211 130.933L358.4 134.669C355.147 130.328 352.226 125.749 349.659 120.971C351.497 118.931 353.596 117.259 355.091 117.887Z" fill="black"/>
<path d="M380.946 130.779L385.903 122.762L390.232 129.676C389.19 131.521 387.499 132.912 385.488 133.578L380.946 130.779Z" fill="#B55B52"/>
<path d="M392.817 122.845V125.323C392.818 126.098 392.549 126.848 392.058 127.446L390.256 129.676L385.927 122.762L390.398 121.137C390.671 121.04 390.964 121.01 391.251 121.05C391.539 121.09 391.812 121.198 392.049 121.365C392.286 121.532 392.48 121.754 392.613 122.012C392.747 122.269 392.817 122.555 392.817 122.845Z" fill="#B55B52"/>
<path d="M387.979 133.092L380.175 132.973L384.492 116.808L392.296 116.927L387.979 133.092Z" fill="#13C2C2"/>
<path d="M388.773 133.092L380.969 132.973L385.286 116.808L393.09 116.927L388.773 133.092Z" fill="#263238"/>
<path opacity="0.2" d="M350.619 311.253L349.552 319.804L342.389 319.922L343.456 311.359L350.619 311.253Z" fill="black"/>
<path opacity="0.2" d="M371.268 311.703L378.23 309.569L380.447 317.681L373.486 319.816L371.268 311.703Z" fill="black"/>
<path d="M316.522 113.63C322.369 138.796 321.1 163.762 321.74 169.146L359.918 166.3C363.582 125.395 354.901 104.628 354.901 104.628C354.901 104.628 352.446 104.153 349.113 103.809C348.07 103.703 346.931 103.608 345.757 103.549C345.105 103.549 344.452 103.489 343.776 103.477C338.35 103.562 332.933 103.958 327.552 104.663C326.532 104.794 325.5 104.936 324.492 105.102L321.788 105.6H321.681C320.807 105.774 319.978 106.122 319.241 106.623C318.505 107.125 317.878 107.77 317.396 108.519C316.914 109.268 316.589 110.107 316.439 110.985C316.289 111.863 316.317 112.763 316.522 113.63Z" fill="#13C2C2"/>
<g opacity="0.2">
<path d="M316.522 113.63C322.369 138.796 321.1 163.762 321.74 169.146L359.918 166.3C363.582 125.395 354.901 104.628 354.901 104.628C354.901 104.628 352.446 104.153 349.113 103.809C348.07 103.703 346.931 103.608 345.757 103.549C345.105 103.549 344.452 103.489 343.776 103.477C338.35 103.562 332.933 103.958 327.552 104.663C326.532 104.794 325.5 104.936 324.492 105.102L321.788 105.6H321.681C320.807 105.774 319.978 106.122 319.241 106.623C318.505 107.125 317.878 107.77 317.396 108.519C316.914 109.268 316.589 110.107 316.439 110.985C316.289 111.863 316.317 112.763 316.522 113.63Z" fill="black"/>
</g>
<path opacity="0.2" d="M322.986 118.943L318.598 124.576C318.603 124.647 318.603 124.719 318.598 124.79C319.214 128.609 319.689 132.345 320.044 135.95C324.255 130.767 323.638 121.41 322.986 118.943Z" fill="black"/>
<path d="M329.39 93.5386C330.303 97.3813 330.244 101.651 327.492 104.711C330.541 107.32 334.49 110.297 340.705 110.06C346.919 109.822 345.532 105.624 343.717 103.501C338.416 102.647 338.404 99.1959 338.356 95.4007C338.354 95.0166 338.23 94.6432 338.002 94.3342C337.774 94.0251 337.454 93.7964 337.087 93.681L331.252 91.8071C331.006 91.7283 330.743 91.7166 330.49 91.7731C330.237 91.8295 330.004 91.9522 329.815 92.1284C329.625 92.3047 329.486 92.5282 329.411 92.776C329.337 93.0238 329.329 93.287 329.39 93.5386Z" fill="#B55B52"/>
<path opacity="0.2" d="M338.368 95.6141L332.497 96.3732C332.628 96.6341 332.794 96.8832 332.948 97.1322C334.063 98.9112 336.506 100.085 339.044 100.512C338.495 98.941 338.265 97.2756 338.368 95.6141Z" fill="black"/>
<path d="M345.982 80.4214C349.244 80.967 355.34 77.2666 353.917 72.3329C352.09 74.6219 345.982 73.851 345.982 73.851V80.4214Z" fill="#263238"/>
<path d="M333.245 85.6399C333.6 88.937 329.532 94.8077 324.694 93.088C327.066 91.4039 326.686 85.2485 326.686 85.2485L333.245 85.6399Z" fill="#263238"/>
<path d="M328.465 79.2355C327.587 86.2803 326.71 90.372 329.568 94.6535C333.849 101.022 343.053 99.3975 346.018 92.7914C348.686 86.8614 349.671 76.2942 343.361 72.2381C341.979 71.3417 340.391 70.8124 338.748 70.7002C337.104 70.5881 335.46 70.8968 333.969 71.5972C332.478 72.2976 331.19 73.3665 330.227 74.703C329.264 76.0395 328.657 77.5995 328.465 79.2355Z" fill="#B55B52"/>
<path d="M327.493 86.3515C329.212 88.1661 333.944 80.7536 333.079 78.0495C334.858 78.8323 338.273 77.3379 338.06 74.3966C343.385 77.243 351.106 79.4964 351.224 74.3966C351.343 69.2968 346.48 65.4423 341.736 65.0391C342.306 66.569 340.799 67.2213 337.704 66.569C334.608 65.9167 322.677 60.4255 323.994 71.396C319.534 71.657 318.953 77.3023 327.493 86.3515Z" fill="#263238"/>
<path d="M324.006 83.6118C324.252 85.3813 325.191 86.9807 326.615 88.0593C328.512 89.4707 329.698 87.9763 329.876 85.7466C330.042 83.7304 329.876 80.5757 327.611 80.042C327.118 79.9345 326.607 79.952 326.123 80.0927C325.638 80.2335 325.197 80.493 324.839 80.8478C324.481 81.2025 324.217 81.6412 324.071 82.124C323.926 82.6067 323.903 83.1182 324.006 83.6118Z" fill="#B55B52"/>
<path d="M334.763 168.186L359.858 166.323C359.858 166.323 363.108 217.831 362.859 239.666C362.61 262.389 352.185 318.096 352.185 318.096L340.064 318.286C340.064 318.286 341.025 264.252 341.025 241.943C341.025 211.901 334.727 168.186 334.727 168.186" fill="#263238"/>
<path opacity="0.2" d="M344.464 221.733C344.796 223.216 354.13 264.975 357.142 289.335C358.744 279.207 360.392 267.833 361.507 257.788L344.464 221.733Z" fill="black"/>
<path d="M346.314 167.344C346.314 167.344 365.421 214.143 369.726 234.673C374.47 257.147 382.001 313.992 382.001 313.992L369.038 316.009C369.038 316.009 359.23 273.514 353.739 251.81C347.5 227.07 322.76 187.897 321.717 169.17L346.314 167.344Z" fill="#263238"/>
<path d="M383.626 315.095L367.52 318.867L365.492 312.664L383.08 309.652L383.626 315.095Z" fill="#13C2C2"/>
<path d="M353.751 318.369L339.305 318.594L339.234 313.933L355.363 313.435L353.751 318.369Z" fill="#13C2C2"/>
<path d="M338.285 82.8884C338.178 83.4577 338.392 83.9676 338.76 84.0744C339.127 84.1811 339.519 83.7423 339.625 83.173C339.732 82.6037 339.519 82.0938 339.139 81.987C338.76 81.8803 338.392 82.3191 338.285 82.8884Z" fill="#263238"/>
<path d="M345.306 84.3829C345.199 84.9403 345.413 85.4621 345.781 85.5689C346.148 85.6756 346.54 85.2368 346.646 84.6675C346.753 84.0982 346.54 83.5764 346.172 83.4815C345.804 83.3866 345.413 83.8136 345.306 84.3829Z" fill="#263238"/>
<path d="M342.993 84.2405C343.346 86.1016 343.952 87.9054 344.796 89.6012C344.356 89.8052 343.876 89.9108 343.391 89.9108C342.905 89.9108 342.426 89.8052 341.985 89.6012L342.993 84.2405Z" fill="#A02724"/>
<path d="M340.788 91.3446C340.153 91.2128 339.551 90.9522 339.021 90.5789C338.491 90.2056 338.042 89.7276 337.704 89.1742C337.683 89.1332 337.678 89.0855 337.692 89.0412C337.705 88.9969 337.735 88.9596 337.775 88.937C337.815 88.9192 337.86 88.9167 337.901 88.9298C337.943 88.9429 337.978 88.9708 338 89.0082C338.387 89.614 338.91 90.1207 339.528 90.4873C340.146 90.854 340.842 91.0705 341.558 91.1193C341.596 91.1293 341.63 91.1516 341.654 91.1827C341.678 91.2138 341.691 91.252 341.691 91.2912C341.691 91.3305 341.678 91.3686 341.654 91.3997C341.63 91.4308 341.596 91.4531 341.558 91.4632C341.299 91.4458 341.041 91.4062 340.788 91.3446Z" fill="#263238"/>
<path d="M337.585 80.3503C337.53 80.3258 337.478 80.2938 337.431 80.2554C337.372 80.1883 337.339 80.1018 337.339 80.0123C337.339 79.9228 337.372 79.8363 337.431 79.7692C337.823 79.3995 338.298 79.1282 338.815 78.9777C339.333 78.8272 339.879 78.8017 340.408 78.9034C340.494 78.9283 340.566 78.9856 340.611 79.063C340.655 79.1405 340.667 79.2321 340.645 79.3185C340.623 79.4033 340.568 79.4757 340.492 79.5202C340.417 79.5646 340.327 79.5774 340.242 79.5557C339.818 79.4793 339.381 79.5051 338.969 79.6309C338.556 79.7567 338.18 79.9789 337.87 80.2792C337.831 80.3113 337.785 80.3343 337.736 80.3466C337.686 80.3589 337.635 80.3602 337.585 80.3503Z" fill="#263238"/>
<path d="M349.09 82.6155C349.035 82.5978 348.986 82.5668 348.947 82.5254C348.907 82.484 348.879 82.4334 348.864 82.3783C348.768 81.9646 348.573 81.5802 348.297 81.2581C348.02 80.9359 347.669 80.6855 347.275 80.5281C347.189 80.5008 347.117 80.4407 347.075 80.3608C347.033 80.2809 347.024 80.1876 347.05 80.1011C347.077 80.015 347.137 79.9431 347.217 79.901C347.297 79.8588 347.39 79.8498 347.477 79.8758C347.984 80.0758 348.434 80.3963 348.79 80.8096C349.145 81.2229 349.395 81.7165 349.516 82.2478C349.531 82.2906 349.536 82.336 349.532 82.3809C349.527 82.4258 349.513 82.4693 349.491 82.5085C349.469 82.5477 349.438 82.5817 349.402 82.6083C349.365 82.635 349.323 82.6535 349.279 82.6629C349.212 82.6723 349.144 82.6553 349.09 82.6155Z" fill="#263238"/>
<path d="M385.002 323.243C384.434 323.52 383.838 323.73 383.223 323.872C383.197 323.892 383.166 323.903 383.134 323.903C383.101 323.903 383.07 323.892 383.045 323.872C383.025 323.844 383.015 323.811 383.015 323.777C383.015 323.743 383.025 323.71 383.045 323.682C383.199 323.421 384.598 321.096 385.488 321.096C385.588 321.096 385.687 321.124 385.773 321.176C385.859 321.229 385.928 321.304 385.974 321.393C386.067 321.533 386.124 321.694 386.141 321.862C386.157 322.029 386.133 322.198 386.069 322.354C385.818 322.757 385.444 323.069 385.002 323.243ZM383.543 323.433C384.412 323.304 385.2 322.851 385.749 322.164C385.791 322.057 385.805 321.941 385.79 321.827C385.776 321.713 385.733 321.605 385.666 321.512C385.595 321.393 385.535 321.381 385.476 321.381C385.014 321.381 384.124 322.531 383.543 323.433Z" fill="#13C2C2"/>
<path d="M383.258 323.86H383.163C383.133 323.855 383.104 323.843 383.079 323.824C383.054 323.806 383.034 323.781 383.021 323.753C382.59 322.824 382.45 321.787 382.618 320.776C382.667 320.655 382.742 320.545 382.835 320.453C382.929 320.361 383.041 320.29 383.163 320.243C383.276 320.186 383.406 320.17 383.529 320.198C383.652 320.227 383.762 320.297 383.839 320.397C384.349 321.037 383.839 323.089 383.318 323.789C383.313 323.804 383.305 323.818 383.295 323.83C383.285 323.843 383.272 323.853 383.258 323.86ZM383.258 320.622C383.13 320.688 383.029 320.797 382.974 320.93C382.832 321.732 382.931 322.557 383.258 323.302C383.65 322.46 383.922 320.99 383.626 320.622C383.626 320.622 383.531 320.504 383.329 320.622H383.258Z" fill="#13C2C2"/>
<path d="M349.422 327.999C349.391 327.987 349.364 327.966 349.346 327.938C349.327 327.911 349.317 327.878 349.317 327.845C349.317 327.812 349.327 327.779 349.346 327.752C349.364 327.724 349.391 327.703 349.422 327.691C349.742 327.513 352.6 326.007 353.478 326.505C353.558 326.551 353.626 326.616 353.676 326.695C353.726 326.773 353.755 326.863 353.762 326.955C353.78 327.108 353.762 327.263 353.708 327.408C353.655 327.552 353.568 327.682 353.454 327.786C352.683 328.485 350.631 328.236 349.469 328.023L349.422 327.999ZM353.288 326.754C352.148 326.82 351.041 327.161 350.062 327.75C351.124 328.053 352.259 327.969 353.264 327.513C353.34 327.443 353.397 327.356 353.43 327.258C353.463 327.161 353.471 327.057 353.454 326.955C353.455 326.919 353.446 326.882 353.427 326.851C353.408 326.819 353.38 326.794 353.347 326.778L353.288 326.754Z" fill="#13C2C2"/>
<path d="M349.422 327.999C349.399 327.981 349.38 327.957 349.368 327.93C349.356 327.904 349.35 327.874 349.35 327.845C349.413 326.832 349.786 325.863 350.418 325.07C350.678 324.848 351.014 324.737 351.355 324.761C351.829 324.761 351.96 325.046 351.995 325.236C352.138 326.042 350.453 327.608 349.623 328.011C349.593 328.031 349.557 328.041 349.52 328.039C349.484 328.037 349.449 328.023 349.422 327.999ZM351.45 325.117C351.395 325.102 351.338 325.102 351.284 325.117C351.16 325.103 351.034 325.115 350.915 325.154C350.796 325.193 350.687 325.257 350.596 325.342C350.07 325.97 349.75 326.744 349.683 327.56C350.56 327.027 351.699 325.781 351.616 325.307C351.616 325.236 351.592 325.164 351.45 325.117Z" fill="#13C2C2"/>
<path d="M327.919 115.859C325.547 120.07 323.175 124.564 321.041 128.988C318.89 133.312 317.047 137.783 315.526 142.366C315.348 142.924 315.217 143.469 315.051 144.015C314.992 144.264 314.885 144.62 314.85 144.786C314.811 144.922 314.78 145.061 314.755 145.201C314.653 145.946 314.673 146.703 314.814 147.442C315.292 149.473 316.071 151.42 317.127 153.218C319.588 157.363 322.457 161.253 325.69 164.829L322.25 168.956C317.663 165.923 313.588 162.18 310.177 157.867C308.276 155.465 306.804 152.753 305.824 149.85C305.26 148.117 305.007 146.298 305.077 144.477C305.077 143.991 305.172 143.481 305.231 142.995C305.291 142.509 305.362 142.26 305.433 141.88C305.575 141.192 305.706 140.469 305.86 139.793C307.189 134.525 308.991 129.389 311.244 124.446C313.407 119.589 315.862 114.868 318.598 110.309L327.919 115.859Z" fill="#B55B52"/>
<path d="M320.471 106.146C313.865 107.96 307.425 126.521 307.425 126.521L323.33 130.933C326.116 127.026 328.34 122.746 329.936 118.219C333.28 109.194 328.465 103.964 320.471 106.146Z" fill="#13C2C2"/>
<g opacity="0.2">
<path d="M320.471 106.146C313.865 107.96 307.425 126.521 307.425 126.521L323.33 130.933C326.116 127.026 328.34 122.746 329.936 118.219C333.28 109.194 328.465 103.964 320.471 106.146Z" fill="black"/>
</g>
<path d="M322.642 163.608L329.9 165.517L327.018 172.337C327.018 172.337 320.507 170.961 320.543 167.415L322.642 163.608Z" fill="#B55B52"/>
<path d="M332.687 170.142L330.541 175.539L327.018 172.337L329.9 165.517L332.687 170.142Z" fill="#B55B52"/>
<mask id="mask0_14169_4972" style="mask-type:alpha" maskUnits="userSpaceOnUse" x="99" y="234" width="98" height="98">
<circle cx="148" cy="283" r="49" fill="#D9D9D9"/>
</mask>
<g mask="url(#mask0_14169_4972)">
<rect x="115" y="264" width="123" height="43" rx="1" fill="#D9D9D9"/>
<path d="M126 277.226H127.877L132.289 290.962H132.441L136.854 277.226H138.73V293.774H137.259V281.202H137.133L133.075 293.774H131.655L127.598 281.202H127.471V293.774H126V277.226Z" fill="black"/>
<path d="M141.883 293.774V277.226H143.455V284.595H150.378V277.226H151.95V293.774H150.378V286.373H143.455V293.774H141.883Z" fill="black"/>
<path d="M159.105 294C158.149 294 157.336 293.669 156.664 293.006C155.992 292.338 155.478 291.371 155.123 290.106C154.768 288.834 154.591 287.299 154.591 285.5C154.591 283.712 154.768 282.185 155.123 280.919C155.482 279.647 155.998 278.678 156.67 278.01C157.346 277.337 158.158 277 159.105 277C160.051 277 160.861 277.337 161.533 278.01C162.209 278.678 162.725 279.647 163.08 280.919C163.439 282.185 163.618 283.712 163.618 285.5C163.618 287.299 163.441 288.834 163.086 290.106C162.731 291.371 162.217 292.338 161.545 293.006C160.873 293.669 160.06 294 159.105 294ZM159.105 292.222C160.051 292.222 160.787 291.641 161.311 290.477C161.835 289.314 162.097 287.655 162.097 285.5C162.097 284.067 161.976 282.847 161.736 281.84C161.499 280.833 161.157 280.065 160.708 279.537C160.265 279.009 159.73 278.745 159.105 278.745C158.166 278.745 157.433 279.335 156.905 280.515C156.376 281.689 156.112 283.351 156.112 285.5C156.112 286.933 156.231 288.15 156.467 289.152C156.704 290.154 157.044 290.916 157.488 291.439C157.936 291.961 158.475 292.222 159.105 292.222Z" fill="black"/>
<path d="M165.723 290.38V288.732L171.429 277.226H172.367V279.779H171.733L167.422 288.473V288.603H175.106V290.38H165.723ZM171.835 293.774V277.226H173.331V293.774H171.835Z" fill="black"/>
<path d="M178.471 277.226L181.818 284.11H181.92L185.267 277.226H187.118L183.035 285.5L187.118 293.774H185.267L181.92 287.019H181.818L178.471 293.774H176.62L180.804 285.5L176.62 277.226H178.471Z" fill="black"/>
<path d="M191.077 277.226L194.424 284.11H194.526L197.873 277.226H199.724L195.642 285.5L199.724 293.774H197.873L194.526 287.019H194.424L191.077 293.774H189.226L193.41 285.5L189.226 277.226H191.077Z" fill="black"/>
<path d="M202.746 277.226L206.094 284.11H206.195L209.543 277.226H211.394L207.311 285.5L211.394 293.774H209.543L206.195 287.019H206.094L202.746 293.774H200.895L205.079 285.5L200.895 277.226H202.746Z" fill="black"/>
<path d="M215.353 277.226L218.7 284.11H218.801L222.149 277.226H224L219.917 285.5L224 293.774H222.149L218.801 287.019H218.7L215.353 293.774H213.501L217.686 285.5L213.501 277.226H215.353Z" fill="black"/>
</g>
<path d="M125.312 330.707C117.986 327.203 111.592 322.018 106.649 315.574C101.707 309.131 98.3561 301.611 96.8703 293.627C95.3846 285.643 95.8056 277.421 98.0991 269.631C100.393 261.841 104.494 254.702 110.068 248.797C115.643 242.892 122.534 238.387 130.18 235.65C137.825 232.912 146.009 232.019 154.065 233.043C162.121 234.067 169.821 236.98 176.538 241.544C183.256 246.108 188.8 252.193 192.72 259.306C197.999 268.87 200.102 279.865 198.728 290.702C197.353 301.54 192.571 311.661 185.072 319.605C177.572 327.549 167.743 332.905 157.002 334.9C146.261 336.896 135.164 335.428 125.312 330.707ZM168.3 240.797C157.954 235.858 146.182 234.778 135.11 237.752C124.037 240.725 114.39 247.557 107.91 257.015C101.43 266.473 98.5414 277.936 99.7661 289.335C100.991 300.735 106.248 311.322 114.589 319.188C122.931 327.053 133.808 331.68 145.26 332.234C156.712 332.788 167.985 329.232 177.047 322.208C186.108 315.184 192.362 305.153 194.681 293.925C197 282.697 195.231 271.009 189.694 260.97C184.844 252.177 177.363 245.122 168.3 240.797Z" fill="#1A252B"/>
<path d="M212.338 387.131C210.89 388.021 209.148 388.301 207.494 387.91C205.84 387.518 204.408 386.488 203.512 385.043L169.793 330.384C169.64 330.137 169.591 329.839 169.657 329.555C169.723 329.271 169.899 329.025 170.146 328.871L177.338 324.433C177.583 324.284 177.876 324.235 178.156 324.297C178.437 324.359 178.682 324.527 178.841 324.766L214.305 378.053C214.792 378.772 215.129 379.582 215.294 380.434C215.459 381.287 215.45 382.164 215.266 383.013C215.082 383.862 214.727 384.665 214.224 385.372C213.721 386.08 213.079 386.678 212.338 387.131Z" fill="#1A252B"/>
<path d="M126.553 328.105C119.222 324.603 112.823 319.418 107.876 312.974C102.93 306.529 99.5755 299.007 98.087 291.021C96.5986 283.034 97.018 274.809 99.3112 267.015C101.604 259.221 105.706 252.08 111.283 246.172C116.859 240.264 123.753 235.757 131.401 233.018C139.05 230.28 147.237 229.387 155.297 230.413C163.356 231.438 171.058 234.353 177.777 238.92C184.496 243.487 190.041 249.577 193.96 256.693C199.236 266.258 201.337 277.252 199.961 288.088C198.586 298.925 193.804 309.044 186.306 316.988C178.808 324.931 168.981 330.288 158.241 332.287C147.502 334.285 136.406 332.82 126.553 328.105ZM169.541 238.195C159.194 233.256 147.423 232.176 136.35 235.149C125.277 238.123 115.631 244.955 109.151 254.413C102.67 263.871 99.782 275.333 101.007 286.733C102.231 298.132 107.489 308.72 115.83 316.585C124.172 324.451 135.049 329.078 146.501 329.632C157.953 330.185 169.226 326.63 178.287 319.605C187.349 312.581 193.603 302.551 195.922 291.322C198.241 280.094 196.472 268.407 190.934 258.368C186.085 249.574 178.604 242.52 169.541 238.195Z" fill="#334852"/>
<path d="M170.456 326.778L179.495 321.202L215.352 379.327C216.054 380.465 216.276 381.836 215.967 383.137C215.659 384.439 214.846 385.565 213.708 386.267L213.184 386.59C212.046 387.292 210.675 387.513 209.374 387.205C208.072 386.897 206.946 386.084 206.244 384.945L170.387 326.82L170.456 326.778Z" fill="#334852"/>
<path d="M110.293 269.342C110.341 268.803 110.436 268.27 110.576 267.748C110.695 267.127 110.853 266.514 111.05 265.912C111.278 265.102 111.547 264.304 111.857 263.522L112.371 262.16C112.563 261.686 112.815 261.222 113.047 260.718C113.501 259.709 114.116 258.7 114.731 257.641C116.163 255.37 117.818 253.248 119.674 251.307C121.564 249.405 123.638 247.695 125.867 246.203C126.845 245.565 127.855 244.975 128.893 244.438C129.377 244.186 129.841 243.924 130.305 243.712L131.656 243.137C132.427 242.806 133.215 242.516 134.017 242.27C134.613 242.055 135.223 241.88 135.842 241.745C136.362 241.598 136.891 241.486 137.426 241.412C136.929 241.622 136.416 241.794 135.893 241.927C135.286 242.094 134.69 242.296 134.107 242.532C133.322 242.8 132.551 243.11 131.798 243.46L130.476 244.055C130.012 244.267 129.558 244.539 129.084 244.791C128.076 245.285 127.148 245.931 126.109 246.576C123.934 248.059 121.907 249.748 120.057 251.62C118.226 253.533 116.581 255.617 115.145 257.843C114.53 258.852 113.904 259.86 113.44 260.869C113.208 261.353 112.946 261.807 112.744 262.271L112.179 263.612C111.796 264.45 111.564 265.257 111.312 265.953C111.095 266.543 110.914 267.146 110.767 267.758C110.652 268.298 110.493 268.827 110.293 269.342Z" fill="#E0E0E0"/>
</svg>
